<?xml version="1.0" standalone="no"?>
<!DOCTYPE svg PUBLIC "-//W3C//DTD SVG 20010904//EN"
 "http://www.w3.org/TR/2001/REC-SVG-20010904/DTD/svg10.dtd">
<svg version="1.0" xmlns="http://www.w3.org/2000/svg"
 width="528.000000pt" height="528.000000pt" viewBox="0 0 528.000000 528.000000"
 preserveAspectRatio="xMidYMid meet">
<metadata>
Created by potrace 1.11, written by Peter Selinger 2001-2013
</metadata>
<g transform="translate(0.000000,528.000000) scale(0.100000,-0.100000)"
fill="#000000" stroke="none">
<path d="M2459 5276 c-2 -2 -41 -7 -86 -10 -46 -4 -91 -9 -102 -11 -10 -2 -34
-6 -52 -9 -19 -3 -45 -8 -59 -11 -14 -2 -38 -7 -55 -10 -133 -26 -445 -123
-470 -146 -5 -5 -15 -9 -22 -9 -23 0 -339 -161 -353 -181 -3 -3 -19 -13 -35
-22 -35 -17 -210 -142 -240 -170 -11 -10 -33 -28 -49 -40 -30 -24 -254 -244
-296 -293 -60 -69 -136 -170 -195 -261 -36 -54 -69 -103 -75 -110 -5 -7 -10
-16 -10 -20 0 -5 -11 -25 -25 -46 -14 -20 -22 -37 -18 -37 4 0 4 -4 -2 -8 -10
-7 -50 -85 -95 -187 -46 -101 -128 -347 -146 -435 -3 -14 -9 -41 -14 -60 -8
-30 -23 -116 -35 -200 -27 -179 -27 -586 0 -720 3 -14 8 -45 11 -70 3 -25 8
-53 10 -62 3 -10 7 -30 10 -45 20 -121 127 -460 153 -486 6 -6 11 -17 11 -25
0 -17 112 -240 151 -302 9 -14 38 -59 64 -100 61 -95 130 -186 210 -279 47
-54 214 -222 268 -269 56 -49 249 -193 275 -205 12 -6 22 -14 22 -19 0 -4 4
-8 9 -8 5 0 38 -18 74 -40 105 -63 281 -150 298 -146 3 0 13 -5 23 -13 9 -8
47 -24 84 -37 37 -13 73 -26 80 -29 7 -2 14 -5 17 -5 3 0 24 -8 47 -16 24 -9
50 -17 58 -19 8 -2 44 -11 80 -20 36 -10 70 -18 75 -19 6 -1 24 -5 40 -9 17
-4 41 -8 55 -11 14 -2 41 -7 60 -10 19 -3 49 -8 65 -11 158 -27 596 -27 734 0
10 2 34 6 52 9 62 10 93 17 159 32 36 9 78 18 93 21 87 15 359 118 502 190
158 80 373 213 431 267 7 6 26 22 44 36 93 73 263 236 352 338 59 67 184 236
214 289 16 26 31 50 34 53 4 3 22 34 41 70 19 36 36 67 39 70 27 27 163 356
197 475 22 80 53 198 57 220 43 226 50 311 51 545 0 168 -3 216 -20 360 -7 69
-44 247 -66 325 -11 39 -22 77 -24 85 -2 8 -4 16 -5 18 -2 1 -3 5 -4 10 -14
63 -94 260 -156 382 -67 134 -75 147 -152 263 -21 32 -38 60 -38 62 0 3 -6 13
-14 22 -75 93 -106 133 -106 136 0 14 -226 249 -317 329 -57 51 -253 198 -280
211 -13 6 -23 14 -23 19 0 4 -4 8 -9 8 -5 0 -40 19 -77 42 -79 48 -257 138
-273 138 -6 0 -11 5 -11 12 0 6 -3 9 -6 5 -3 -3 -29 4 -58 17 -61 27 -179 67
-187 63 -3 -1 -13 4 -22 12 -10 7 -17 10 -17 7 0 -4 -8 -2 -18 3 -11 6 -30 12
-43 15 -13 3 -44 10 -69 17 -25 6 -53 12 -63 14 -10 2 -26 6 -35 9 -9 3 -37 8
-62 11 -24 4 -47 8 -50 10 -3 2 -31 6 -61 9 -29 4 -67 8 -84 11 -34 6 -461 16
-466 11z"/>
</g>
</svg>
